<?xml version="1.0" encoding="UTF-8" standalone="no"?>
<!DOCTYPE svg PUBLIC "-//W3C//DTD SVG 1.1//EN" "http://www.w3.org/Graphics/SVG/1.1/DTD/svg11.dtd">
<!-- Created with Vectornator (http://vectornator.io/) -->
<svg height="100%" stroke-miterlimit="10" style="fill-rule:nonzero;clip-rule:evenodd;stroke-linecap:round;stroke-linejoin:round;" version="1.1" viewBox="0 0 96 96" width="100%" xml:space="preserve">
<defs/>
<g id="Layer-2">
<path d="M12 0C5.37258 0 1.60115e-07 5.37258 0 12L0 84C0 90.6274 5.37258 96 12 96L84 96C90.6274 96 96 90.6274 96 84L96 12C96 5.37258 90.6274 1.60115e-07 84 0L12 0ZM28.4375 23.1562C42.0896 23.1563 53.1562 34.2229 53.1562 47.875C53.1562 61.5271 42.0896 72.5938 28.4375 72.5938C14.7854 72.5937 3.71875 61.5271 3.71875 47.875C3.71875 34.2229 14.7854 23.1563 28.4375 23.1562ZM68.7188 25.0312C75.247 25.0312 80.5312 35.2462 80.5312 47.875C80.5312 60.5038 75.247 70.75 68.7188 70.75C62.1905 70.75 56.9063 60.5038 56.9062 47.875C56.9062 35.2462 62.1905 25.0312 68.7188 25.0312ZM88.2812 27.4062C90.3412 27.4062 92.0313 36.5739 92.0312 47.875C92.0312 59.176 90.3412 68.3125 88.2812 68.3125C86.2213 68.3125 84.5625 59.1761 84.5625 47.875C84.5625 36.574 86.2213 27.4063 88.2812 27.4062Z" fill-rule="nonzero" opacity="1" stroke="none"/>
</g>
</svg>
