<?xml version="1.0" encoding="UTF-8" standalone="no"?>
<!DOCTYPE svg PUBLIC "-//W3C//DTD SVG 1.1//EN" "http://www.w3.org/Graphics/SVG/1.1/DTD/svg11.dtd">
<!-- Created with Vectornator (http://vectornator.io/) -->
<svg height="100%" stroke-miterlimit="10" style="fill-rule:nonzero;clip-rule:evenodd;stroke-linecap:round;stroke-linejoin:round;" version="1.1" viewBox="0 0 96 96" width="100%" xml:space="preserve">
<defs/>
<g id="Layer-2">
<path d="M12 0C5.37258 0 1.60115e-07 5.37258 0 12L0 84C0 90.6274 5.37258 96 12 96L84 96C90.6274 96 96 90.6274 96 84L96 12C96 5.37258 90.6274 1.60115e-07 84 0L12 0ZM75.0625 9.5625C78.5595 9.5625 81.375 12.378 81.375 15.875C81.375 19.372 78.5595 22.1875 75.0625 22.1875C71.7332 22.1875 69.0667 19.6078 68.8125 16.3438L54.5312 13.4062L50.2812 34.3125C60.1851 34.7044 69.1055 37.5902 75.5938 42.1562C77.2761 40.5397 79.5451 39.5 82.0625 39.5C87.2322 39.5 91.375 43.7053 91.375 48.875C91.375 52.5921 89.1392 55.7077 86 57.2188C86.1841 58.2594 86.5 59.2691 86.5 60.3438C86.5 74.8126 69.2838 86.5938 48.0938 86.5938C26.9037 86.5937 9.71876 74.8126 9.71875 60.3438C9.71875 59.3041 10.015 58.3205 10.1875 57.3125C6.86381 55.8756 4.5625 52.57 4.5625 48.7188C4.5625 43.5491 8.73655 39.375 13.9062 39.375C16.5171 39.375 18.8647 40.4634 20.5625 42.1875C27.1005 37.5652 36.108 34.6733 46.125 34.3125L51.0625 9.71875L51.125 9.71875L51.125 9.65625L52.4688 9.65625L52.4688 9.71875L52.9375 9.75L52.9375 9.71875L69.4688 13C70.523 10.9685 72.6156 9.56249 75.0625 9.5625ZM32.9688 48.625C29.3401 48.625 26.4062 51.5589 26.4062 55.1875C26.4063 58.8161 29.3401 61.75 32.9688 61.75C36.5974 61.75 39.5625 58.8161 39.5625 55.1875C39.5625 51.5589 36.5974 48.625 32.9688 48.625ZM63.0312 49.0938C59.4026 49.0937 56.4375 52.0276 56.4375 55.6562C56.4374 59.2849 59.4026 62.2188 63.0312 62.2188C66.6599 62.2188 69.5938 59.2849 69.5938 55.6562C69.5938 52.0276 66.6599 49.0938 63.0312 49.0938ZM33.6562 70.25C31.9436 70.1375 31.625 71.1563 31.625 71.1562C31.625 71.1562 30.8803 72.3846 32.625 73.75C34.3697 75.1154 35.5765 75.593 38.5625 76.5625C41.5485 77.532 44.7542 78.0938 48.0625 78.0938C51.284 78.0938 54.4164 77.5683 57.3438 76.6562C60.2711 75.7442 61.3684 75.1363 63.0625 73.8125C64.7567 72.4888 64.125 71.4063 64.125 71.4062C64.125 71.4063 63.8797 70.2387 62.0312 70.625C60.1828 71.0113 58.2674 72.4429 55.8125 73.1875C53.3576 73.9321 50.7699 74.3125 48.0625 74.3125C45.2704 74.3125 42.571 73.9021 40.0312 73.125C37.4915 72.3479 35.3689 70.3625 33.6562 70.25Z" fill-rule="nonzero" opacity="1" stroke="none"/>
</g>
</svg>
