<?xml version="1.0" encoding="UTF-8" standalone="no"?>
<!DOCTYPE svg PUBLIC "-//W3C//DTD SVG 1.1//EN" "http://www.w3.org/Graphics/SVG/1.1/DTD/svg11.dtd">
<!-- Created with Vectornator (http://vectornator.io/) -->
<svg height="100%" stroke-miterlimit="10" style="fill-rule:nonzero;clip-rule:evenodd;stroke-linecap:round;stroke-linejoin:round;" version="1.1" viewBox="0 0 96 96" width="100%" xml:space="preserve">
<defs/>
<g id="Layer-1">
<path d="M12 0C5.37258 0 1.60115e-07 5.37258 0 12L0 84C0 90.6274 5.37258 96 12 96L84 96C90.6274 96 96 90.6274 96 84L96 12C96 5.37258 90.6274 1.60115e-07 84 0L12 0ZM63.625 15.5312C68.1355 15.5312 72.0749 17.5234 74.9688 20.5312C79.152 20.5117 82.9296 18.9377 85.875 16.4062C84.8103 20.0561 82.5372 23.1808 79.5625 25.375C79.5669 25.3997 79.5581 25.4128 79.5625 25.4375C82.6142 25.3247 85.4698 24.5264 88 23.1562C86.0788 26.4646 83.3471 29.1566 80.1562 31.2188C80.2106 32.0173 80.4062 32.7815 80.4062 33.5938C80.4062 59.4916 59.3964 80.4688 33.5 80.4688C24.0704 80.4687 15.3512 77.6327 8 72.8438C9.4514 73.0404 10.8696 73.2812 12.375 73.2812C20.0304 73.2813 26.8825 70.4448 32.4375 66.0312C25.4815 65.8948 19.6628 61.3633 17.5312 55.0938C18.5046 55.2364 19.4558 55.4062 20.4688 55.4062C22.4764 55.4063 24.3902 55.0422 26.2188 54.5C18.2027 54.0924 11.8125 47.4936 11.8125 39.375C11.8125 39.2949 11.8425 39.2048 11.8438 39.125C13.766 39.8661 15.8165 40.3125 18 40.3125C18.5185 40.3125 18.9965 40.1728 19.5 40.125C15.0096 37.3098 11.8437 32.5969 11.8438 26.9062C11.8438 23.8924 12.8889 21.2151 14.3438 18.8125C18.7369 24.063 24.3707 28.1585 30.6562 31.0625C32.708 32.021 34.8422 32.7931 37.0312 33.4688C37.9617 33.7431 38.8901 34.0631 39.8438 34.2812C42.5859 34.9423 45.3584 35.4688 48.2812 35.5938C47.9301 34.2775 47.6875 32.9269 47.6875 31.5C47.6875 22.6826 54.8081 15.5313 63.625 15.5312Z" fill-rule="nonzero" opacity="1" stroke="none"/>
</g>
</svg>
