<?xml version="1.0" standalone="no"?>
<!DOCTYPE svg PUBLIC "-//W3C//DTD SVG 20010904//EN"
 "http://www.w3.org/TR/2001/REC-SVG-20010904/DTD/svg10.dtd">
<svg version="1.0" xmlns="http://www.w3.org/2000/svg"
 width="998.000000pt" height="998.000000pt" viewBox="0 0 998.000000 998.000000"
 preserveAspectRatio="xMidYMid meet">
<metadata>
Created by potrace 1.14, written by Peter Selinger 2001-2017
</metadata>
<g transform="translate(0.000000,998.000000) scale(0.100000,-0.100000)"
fill="#000000" stroke="none">
<path d="M4655 9969 c-465 -33 -974 -143 -1397 -303 -673 -253 -1244 -617
-1751 -1115 -423 -416 -725 -833 -982 -1356 -268 -545 -424 -1085 -491 -1695
-22 -197 -25 -771 -6 -965 54 -533 187 -1064 378 -1500 275 -630 629 -1145
1110 -1615 381 -373 770 -648 1264 -894 491 -244 861 -364 1425 -460 442 -76
877 -85 1360 -30 878 100 1709 430 2420 961 918 685 1575 1676 1850 2788 54
216 103 477 125 665 17 147 24 679 11 892 -58 943 -407 1875 -996 2657 -688
913 -1681 1566 -2789 1836 -511 124 -1030 169 -1531 134z m815 -723 c1163
-139 2183 -707 2892 -1610 513 -653 811 -1403 899 -2261 16 -155 16 -616 0
-770 -77 -746 -308 -1397 -707 -1995 -371 -555 -880 -1027 -1459 -1351 -493
-276 -1008 -443 -1600 -520 -142 -19 -221 -22 -480 -23 -442 -1 -504 8 -488
72 44 177 864 1484 1167 1862 89 111 238 262 346 352 92 77 124 95 345 198
160 74 321 183 542 367 206 171 309 237 519 332 322 145 866 327 1275 426 207
49 272 71 298 99 21 22 22 28 12 59 -18 55 -107 181 -162 231 -121 109 -311
201 -629 307 -399 132 -482 142 -1145 140 -632 -1 -821 -10 -935 -46 -121 -38
-272 -116 -380 -196 -51 -38 -96 -69 -100 -69 -19 0 -32 36 -55 151 -91 456
-276 707 -610 828 -135 49 -225 64 -380 64 -163 0 -241 -12 -525 -83 -231 -57
-304 -63 -360 -29 -19 12 -108 75 -198 141 -283 207 -602 409 -982 621 -269
150 -552 297 -572 297 -21 0 -121 -107 -147 -158 -24 -47 -27 -85 -8 -100 6
-5 129 -71 272 -145 388 -201 519 -275 887 -504 269 -167 507 -343 534 -395
18 -36 6 -66 -47 -118 -54 -52 -103 -66 -183 -50 -34 6 -194 63 -357 125 -470
181 -636 234 -909 290 -303 63 -544 89 -591 65 -37 -20 -63 -89 -64 -167 0
-117 21 -130 275 -158 274 -31 424 -64 770 -169 422 -128 633 -208 685 -260
47 -47 33 -116 -81 -400 -91 -226 -193 -426 -268 -526 -152 -203 -461 -456
-706 -580 -194 -98 -618 -229 -872 -270 -134 -22 -139 -17 -223 230 -133 391
-203 724 -236 1108 -17 207 -6 672 20 868 110 814 413 1521 925 2164 128 161
465 498 626 626 417 332 860 575 1339 734 336 111 730 189 1081 214 129 9 621
-3 750 -18z m-670 -3692 c173 -40 323 -159 399 -316 52 -107 78 -211 90 -354
10 -128 2 -230 -29 -340 -26 -96 -44 -131 -121 -235 -168 -227 -410 -405 -662
-488 -125 -41 -201 -53 -337 -53 -94 0 -131 5 -205 27 -113 33 -241 95 -297
145 -108 95 -154 287 -129 540 30 295 88 436 262 636 124 143 270 269 363 314
99 47 263 105 354 124 89 19 232 19 312 0z m2515 -784 c293 -9 484 -25 573
-49 41 -11 92 -45 92 -61 0 -19 -51 -42 -152 -70 -100 -28 -299 -99 -558 -199
-69 -27 -169 -61 -224 -75 -134 -36 -234 -84 -433 -212 -92 -59 -208 -127
-258 -152 -49 -24 -111 -58 -137 -74 -26 -17 -57 -28 -70 -26 -20 3 -23 10
-26 49 -4 64 19 118 136 327 120 212 138 255 156 377 14 94 33 137 64 150 19
8 251 21 417 23 61 1 250 -3 420 -8z"/>
<path d="M4575 5118 c-143 -50 -180 -225 -71 -335 55 -55 132 -78 229 -69 37
3 83 12 101 20 121 50 126 273 8 350 -64 43 -195 59 -267 34z"/>
</g>
</svg>
